<?xml version="1.0" standalone="no"?>
<!DOCTYPE svg PUBLIC "-//W3C//DTD SVG 20010904//EN"
 "http://www.w3.org/TR/2001/REC-SVG-20010904/DTD/svg10.dtd">
<svg version="1.0" xmlns="http://www.w3.org/2000/svg"
 width="1000.000000pt" height="1000.000000pt" viewBox="0 0 1000.000000 1000.000000"
 preserveAspectRatio="xMidYMid meet">
<metadata>
Created by potrace 1.11, written by Peter Selinger 2001-2013
</metadata>
<g transform="translate(0.000000,1000.000000) scale(0.100000,-0.100000)"
fill="#000000" stroke="none">
<path d="M4905 8511 c-6 -6 -158 -11 -357 -13 -261 -2 -350 -6 -360 -15 -6 -7
-18 -13 -26 -13 -29 0 -181 -74 -256 -125 -123 -83 -274 -235 -342 -345 -26
-41 -67 -103 -91 -138 -24 -34 -57 -86 -72 -115 -15 -28 -61 -96 -102 -150
-41 -54 -93 -124 -117 -155 -24 -31 -58 -75 -77 -97 -18 -22 -66 -80 -105
-130 -40 -49 -77 -91 -81 -93 -5 -2 -9 -8 -9 -14 0 -6 -9 -20 -19 -32 -47 -52
-91 -106 -136 -166 -26 -36 -53 -69 -59 -75 -6 -5 -38 -46 -71 -90 -32 -44
-65 -84 -71 -90 -6 -5 -63 -80 -125 -165 -62 -85 -116 -156 -121 -158 -4 -2
-8 -8 -8 -12 0 -11 -123 -186 -158 -225 -78 -86 -341 -439 -355 -477 -3 -10
-11 -18 -17 -18 -5 0 -10 -5 -10 -11 0 -6 -35 -63 -77 -127 -43 -65 -80 -121
-82 -127 -2 -5 -20 -32 -39 -60 -47 -66 -95 -136 -107 -156 -5 -9 -55 -84
-110 -165 -55 -82 -102 -153 -104 -159 -8 -19 -74 -110 -102 -140 -15 -16 -39
-42 -53 -58 -14 -15 -32 -44 -41 -65 -59 -135 -54 -124 -147 -304 -16 -32 -33
-60 -38 -63 -13 -8 -12 -363 1 -470 5 -44 14 -132 21 -195 7 -63 16 -119 19
-125 4 -5 12 -47 19 -92 8 -46 17 -83 21 -83 4 0 10 -24 14 -52 4 -29 11 -57
15 -63 4 -5 13 -37 20 -70 7 -33 16 -64 20 -70 4 -5 12 -28 18 -50 10 -41 76
-234 92 -270 23 -54 93 -203 106 -227 23 -43 46 -140 40 -171 -4 -21 4 -42 36
-90 81 -123 102 -152 114 -160 7 -4 19 -13 26 -20 17 -17 95 -54 130 -62 16
-4 28 -10 28 -14 0 -5 25 -13 55 -20 30 -7 55 -16 55 -21 0 -4 17 -11 38 -15
20 -4 42 -10 47 -15 6 -4 37 -13 70 -20 33 -7 65 -15 70 -19 6 -3 39 -11 75
-18 128 -23 235 -47 240 -53 3 -4 39 -12 80 -19 41 -8 80 -16 85 -20 15 -9
110 -30 215 -48 52 -8 104 -19 115 -23 11 -5 130 -14 265 -20 135 -7 249 -15
255 -18 15 -9 390 -31 735 -44 168 -5 307 -14 308 -19 5 -12 1989 -12 1994 0
2 5 50 14 108 19 236 23 268 40 435 228 33 37 77 85 98 107 20 21 37 43 37 48
0 5 3 9 8 9 4 0 30 28 57 61 28 34 59 71 70 84 11 12 38 44 60 70 52 63 170
202 204 240 14 16 39 48 55 70 16 22 35 45 41 50 30 26 89 110 115 164 16 32
34 61 39 63 9 3 221 295 221 305 0 3 24 39 54 81 29 43 55 82 57 87 2 6 34 56
72 113 37 56 67 105 67 107 0 3 16 29 34 58 19 30 47 76 62 103 15 27 40 69
56 93 17 25 34 54 39 65 5 12 20 39 33 61 13 22 36 63 51 90 14 28 37 68 50
90 20 36 79 148 201 385 22 41 41 77 44 80 3 3 22 39 44 80 21 41 54 104 73
140 20 36 65 121 100 190 36 69 69 129 74 135 5 5 9 16 9 25 0 8 6 27 14 42 8
14 19 43 26 63 7 20 18 49 26 63 8 15 14 33 14 40 0 6 5 12 12 12 6 0 9 3 5 6
-5 5 23 79 74 191 10 23 19 47 19 52 0 6 4 11 9 11 5 0 14 20 20 44 6 25 15
48 21 51 5 3 10 14 10 23 1 9 9 35 20 57 11 22 20 47 20 55 0 8 9 33 20 55 11
22 20 47 20 55 0 8 9 33 20 55 11 22 19 48 20 57 0 9 4 19 9 22 5 4 12 24 16
46 4 22 11 42 16 46 11 7 12 1354 1 1354 -5 0 -12 89 -16 197 -3 108 -10 200
-14 203 -10 7 -62 116 -62 129 0 6 -4 11 -9 11 -4 0 -14 20 -21 43 -8 31 -21
49 -43 63 -43 26 -149 73 -164 74 -7 0 -13 4 -13 9 0 5 -15 12 -32 16 -18 4
-42 13 -53 20 -11 7 -36 16 -55 20 -19 4 -39 11 -45 15 -5 4 -46 13 -90 20
-44 6 -84 15 -90 19 -5 3 -41 11 -80 17 -124 20 -249 45 -270 54 -11 5 -58 14
-105 21 -47 6 -89 14 -95 18 -11 7 -107 24 -260 46 -55 8 -116 19 -135 24 -36
10 -172 34 -295 52 -38 5 -78 14 -88 20 -11 6 -150 13 -343 16 -179 3 -327 10
-330 15 -8 12 -1414 10 -1414 -2 0 -5 -16 -10 -35 -10 -19 0 -35 5 -35 10 0
13 -272 13 -285 1z m1175 -401 c102 -6 194 -15 205 -19 28 -12 352 -40 600
-51 116 -5 239 -14 275 -19 36 -6 136 -15 224 -21 87 -7 168 -15 180 -20 11
-4 70 -13 131 -20 60 -6 114 -15 120 -19 5 -5 27 -12 49 -15 21 -4 46 -11 55
-16 9 -5 57 -13 108 -19 50 -5 100 -14 110 -19 64 -32 129 -66 133 -72 6 -8
90 -38 145 -51 112 -27 146 -72 127 -169 -13 -69 -42 -172 -52 -185 -4 -5 -13
-31 -20 -58 -7 -26 -17 -50 -21 -53 -5 -3 -9 -12 -9 -20 0 -8 -12 -41 -26 -72
-45 -99 -52 -116 -59 -144 -4 -16 -11 -28 -16 -28 -5 0 -9 -7 -9 -15 0 -9 -16
-50 -35 -91 -19 -41 -35 -77 -35 -81 0 -17 -170 -370 -258 -535 -31 -59 -79
-149 -106 -200 -27 -51 -53 -94 -57 -96 -5 -2 -9 -8 -9 -14 0 -6 -26 -56 -58
-112 -33 -56 -108 -186 -169 -291 -60 -104 -113 -197 -116 -205 -4 -8 -25 -42
-47 -75 -22 -33 -46 -73 -55 -90 -8 -16 -32 -56 -52 -87 -21 -31 -51 -77 -68
-102 -16 -26 -69 -102 -116 -169 -47 -68 -96 -145 -109 -172 -13 -28 -26 -52
-29 -55 -3 -3 -13 -18 -21 -35 -8 -16 -18 -34 -22 -40 -4 -5 -54 -80 -110
-165 -102 -154 -205 -273 -263 -303 -16 -8 -44 -31 -61 -49 -38 -41 -121 -86
-175 -94 -21 -4 -39 -10 -39 -14 0 -5 -24 -11 -52 -15 -29 -4 -74 -14 -101
-22 -39 -13 -81 -14 -230 -9 -529 17 -1097 28 -1852 36 -462 5 -862 11 -890
14 -27 3 -135 10 -240 16 -104 6 -203 15 -220 20 -16 5 -129 16 -250 25 -281
21 -393 32 -430 45 -16 5 -88 16 -160 24 -177 20 -266 34 -290 45 -11 5 -40
14 -64 21 -71 19 -75 28 -56 111 8 39 22 77 30 85 7 8 17 36 21 62 7 47 31
102 46 102 5 0 13 10 19 23 5 12 21 40 34 62 13 22 31 54 39 70 8 17 32 59 52
95 20 36 44 79 52 95 9 17 18 32 21 35 3 3 21 34 39 70 46 90 62 118 100 172
17 26 32 49 32 53 0 3 4 11 10 18 5 7 46 64 91 127 44 63 86 120 93 125 7 6
38 44 69 86 31 42 62 83 69 90 8 8 42 52 76 97 35 46 67 89 73 95 45 55 59 73
59 80 0 5 16 29 35 54 19 25 35 50 35 55 0 10 117 174 166 233 53 62 154 193
209 268 28 38 75 101 106 140 30 40 106 142 169 227 62 85 118 160 124 165 6
6 27 30 46 55 98 129 330 385 597 660 67 69 157 161 200 206 108 111 136 127
242 132 47 3 88 8 91 12 3 5 91 13 195 20 105 7 192 14 195 17 8 8 959 -6
1160 -17z m2909 -1192 c10 -24 22 -54 25 -68 4 -14 12 -35 18 -47 8 -16 8 -76
0 -210 -6 -103 -8 -200 -5 -214 2 -15 0 -98 -6 -186 -11 -155 -24 -218 -67
-310 -7 -17 -14 -36 -14 -43 0 -7 -6 -26 -14 -43 -36 -79 -56 -130 -56 -141 0
-6 -7 -24 -16 -41 -8 -16 -34 -73 -56 -125 -22 -52 -49 -115 -60 -140 -21 -48
-163 -335 -178 -360 -5 -8 -68 -118 -140 -245 -72 -126 -135 -237 -140 -245
-6 -8 -15 -26 -20 -40 -6 -14 -15 -34 -22 -45 -6 -11 -36 -67 -66 -125 -55
-106 -102 -192 -148 -265 -13 -22 -27 -47 -31 -55 -6 -13 -54 -87 -135 -208
-9 -14 -21 -28 -26 -31 -10 -7 -103 -133 -234 -316 -47 -66 -94 -129 -105
-140 -10 -11 -57 -72 -103 -135 -82 -114 -98 -131 -159 -180 -18 -14 -48 -42
-68 -62 -30 -32 -43 -38 -78 -38 -32 0 -47 6 -67 28 -43 46 -60 79 -74 145 -7
34 -20 89 -29 122 -9 33 -20 76 -25 95 -16 60 -12 293 6 347 27 84 96 236 128
282 17 26 36 55 43 66 46 77 73 126 73 135 0 5 4 10 8 10 5 0 21 29 37 65 16
36 33 65 37 65 4 0 8 6 8 14 0 15 140 293 188 374 18 29 32 55 32 57 0 7 104
172 132 210 27 37 98 146 98 151 0 4 16 29 35 55 19 27 35 51 35 54 0 6 39 62
147 212 40 56 73 107 73 112 0 6 4 11 10 11 5 0 16 15 25 33 8 17 19 39 25 47
5 8 26 44 47 80 20 36 40 68 46 71 5 3 8 9 7 13 -1 4 18 37 44 72 25 35 46 67
46 71 0 4 17 27 38 52 49 59 142 189 142 198 0 3 6 14 14 22 8 9 42 68 77 131
34 63 73 133 86 155 12 22 27 50 32 61 5 12 32 53 60 91 28 38 51 73 51 77 0
4 11 22 25 40 14 18 25 38 25 44 0 6 3 12 8 14 4 2 18 23 31 48 12 25 36 69
52 98 16 28 26 52 23 52 -3 0 -2 5 1 10 3 6 24 10 45 10 37 0 41 -3 59 -42z
m-5414 -3386 c72 -6 285 -11 475 -12 190 0 390 -5 445 -10 270 -22 370 -33
375 -39 3 -4 52 -13 110 -20 58 -6 119 -16 135 -21 17 -5 80 -14 140 -19 117
-11 290 -37 315 -48 34 -14 149 -45 205 -54 33 -6 79 -14 103 -19 23 -6 62
-10 86 -10 65 0 89 -13 152 -77 95 -97 143 -166 150 -214 4 -24 10 -48 14 -54
4 -5 13 -44 20 -85 6 -41 16 -83 21 -93 5 -10 15 -64 21 -120 14 -123 0 -418
-20 -425 -7 -2 -12 -9 -12 -17 0 -7 -27 -37 -60 -68 l-59 -55 -1373 -7 c-755
-3 -1431 -7 -1503 -8 -85 -1 -167 5 -235 16 -58 10 -172 24 -255 31 -82 8
-168 18 -190 24 -22 6 -74 14 -115 17 -41 4 -79 11 -85 15 -5 4 -59 13 -120
20 -60 7 -114 16 -120 20 -5 4 -43 11 -83 14 -40 4 -94 13 -120 21 -26 7 -66
16 -90 19 -24 4 -51 11 -60 16 -9 5 -30 12 -46 15 -40 9 -143 119 -157 169 -6
21 -15 46 -19 55 -5 9 -21 45 -36 81 -14 36 -34 83 -43 105 -40 89 -49 114
-71 195 -12 47 -26 93 -31 102 -5 10 -14 62 -20 115 -6 54 -15 106 -20 115 -5
10 -9 39 -9 64 0 40 7 56 48 112 26 36 50 70 54 76 3 5 35 13 70 18 34 5 92
13 128 19 36 5 381 13 767 17 386 5 706 11 710 15 9 9 221 3 408 -11z"/>
<path d="M4575 7603 c-33 -8 -73 -21 -90 -28 -16 -7 -42 -17 -57 -20 -16 -4
-28 -11 -28 -15 0 -5 -13 -11 -30 -15 -16 -4 -32 -11 -36 -16 -3 -5 -20 -16
-37 -24 -66 -32 -181 -110 -227 -155 -20 -19 -98 -118 -173 -220 -152 -205
-232 -311 -244 -319 -5 -3 -28 -33 -52 -66 -24 -33 -49 -65 -55 -70 -33 -30
-91 -201 -102 -300 -3 -33 -10 -65 -15 -70 -26 -33 -4 -299 31 -369 37 -74 39
-75 146 -87 141 -16 576 -12 661 6 157 33 209 46 228 55 36 17 109 41 155 51
25 6 54 14 65 19 11 5 56 21 100 35 44 14 88 30 98 36 9 5 51 15 92 21 41 6
75 15 75 19 0 4 15 10 33 13 18 3 51 15 72 26 22 11 47 20 57 20 10 0 18 4 18
9 0 5 10 11 23 15 12 3 45 20 72 39 l50 33 73 -99 c41 -55 83 -116 93 -136 19
-33 143 -161 158 -161 3 0 20 -13 36 -29 32 -30 185 -121 203 -121 6 0 12 -3
14 -7 2 -5 26 -19 53 -32 28 -14 107 -58 177 -98 69 -40 131 -73 136 -73 5 0
23 -7 41 -16 33 -16 102 -15 246 4 89 12 100 17 207 90 26 17 51 32 56 32 8 0
13 3 99 70 29 22 55 40 59 40 18 0 119 95 185 174 125 150 320 468 373 606 16
41 35 89 42 105 7 17 16 44 20 60 4 17 10 35 14 40 4 6 10 26 14 45 3 19 13
47 20 62 8 16 18 48 22 73 3 25 10 48 15 51 5 3 9 18 9 33 0 16 7 67 15 115
14 79 14 92 -2 154 -9 37 -23 71 -32 77 -21 13 -124 55 -134 55 -5 0 -23 6
-40 14 -18 8 -50 19 -72 26 -22 6 -49 15 -60 20 -11 4 -69 17 -130 28 -89 16
-127 18 -200 12 -112 -10 -224 -28 -250 -40 -11 -5 -47 -14 -79 -21 -33 -6
-67 -15 -75 -19 -38 -20 -131 -60 -140 -60 -5 0 -11 -4 -13 -10 -1 -5 -39 -22
-83 -36 -44 -15 -93 -32 -110 -39 -16 -7 -41 -16 -55 -20 -40 -11 -250 -111
-260 -124 -7 -9 -113 -61 -124 -61 -19 0 -96 -42 -96 -52 0 -13 -39 -48 -54
-48 -6 0 -39 -18 -74 -40 -34 -22 -65 -40 -68 -40 -3 0 -12 -7 -20 -15 -22
-21 -44 -19 -44 6 0 30 -107 239 -122 239 -5 0 -8 5 -8 10 0 6 -12 29 -27 53
-45 73 -95 150 -131 205 -38 56 -138 156 -187 188 -16 10 -32 21 -35 24 -3 3
-27 15 -55 28 -112 50 -303 66 -430 35z m313 -269 c4 -6 17 -14 30 -18 33 -11
79 -53 125 -115 22 -31 46 -60 53 -66 16 -14 68 -113 83 -158 7 -20 16 -37 20
-37 4 0 13 -17 20 -37 8 -21 21 -46 30 -57 15 -18 15 -18 -9 -11 -14 4 -30 11
-36 16 -22 17 -99 56 -126 62 -18 5 -25 12 -22 21 7 17 -1 22 -46 30 -34 7
-34 6 -15 -10 19 -16 18 -16 -20 -10 -22 3 -84 11 -137 16 -95 10 -98 10 -137
-15 -23 -14 -45 -25 -50 -25 -5 0 -23 -14 -40 -32 -34 -35 -41 -77 -18 -120
32 -62 72 -77 203 -78 75 0 115 -10 164 -41 8 -5 27 -14 43 -20 15 -6 27 -14
27 -19 0 -4 14 -13 30 -20 17 -7 30 -15 30 -19 0 -3 18 -17 40 -31 65 -39 53
-75 -40 -120 -25 -12 -52 -26 -60 -30 -8 -5 -46 -27 -83 -50 -38 -22 -80 -43
-93 -46 -13 -3 -24 -9 -24 -13 0 -4 -24 -13 -52 -21 -29 -7 -55 -16 -58 -20
-7 -10 -166 -47 -234 -54 -33 -4 -64 -11 -70 -15 -6 -5 -51 -17 -101 -26 -109
-21 -443 -27 -466 -9 -8 6 -35 15 -61 18 -26 4 -50 11 -53 17 -4 5 -15 9 -26
9 -17 0 -19 5 -13 58 7 65 42 222 53 237 4 6 13 30 20 54 7 24 23 60 35 80 12
20 27 47 34 61 12 24 16 31 57 96 64 100 244 284 380 389 14 11 31 25 38 30
36 28 75 53 95 59 12 4 22 12 22 17 0 5 6 9 13 9 6 0 35 12 62 25 28 14 55 25
61 25 7 0 25 7 40 15 23 13 56 15 152 13 76 -2 125 -7 130 -14z m2433 -201
c17 -16 35 -37 40 -48 5 -11 20 -38 34 -60 13 -22 24 -52 25 -67 0 -29 -36
-192 -50 -223 -5 -11 -14 -38 -21 -60 -6 -22 -15 -44 -19 -50 -4 -5 -11 -21
-15 -35 -16 -54 -137 -289 -166 -321 -17 -19 -46 -52 -66 -74 -82 -92 -220
-241 -247 -266 -16 -15 -43 -30 -62 -33 -18 -4 -34 -10 -36 -14 -7 -15 -100
-55 -160 -68 -78 -16 -150 -18 -197 -3 -76 24 -171 63 -171 70 0 4 -11 10 -25
13 -21 5 -140 80 -155 97 -3 3 -12 10 -21 15 -18 10 -76 56 -119 94 -15 14
-53 68 -84 120 -45 75 -56 102 -54 130 3 31 9 38 53 61 121 62 164 69 365 64
177 -4 260 5 260 27 0 5 10 13 23 19 12 5 33 26 46 45 32 46 25 101 -17 141
-51 46 -55 49 -122 71 -69 24 -174 29 -245 12 -22 -5 -41 -7 -44 -4 -9 9 10
17 50 20 65 6 135 43 82 44 -31 1 13 28 58 35 21 4 39 10 39 15 0 5 19 13 43
19 23 6 71 18 107 26 36 9 72 20 80 24 9 5 30 12 47 15 17 4 41 16 54 27 12
10 30 19 40 19 10 0 20 4 23 9 3 4 27 14 53 21 27 7 53 17 58 21 6 4 38 13 70
19 33 6 94 17 135 25 41 8 93 14 115 15 22 0 47 5 55 10 8 5 36 10 63 10 37 0
54 -6 78 -27z"/>
<path d="M8500 5677 c-24 -19 -97 -148 -105 -184 -4 -18 -10 -33 -15 -33 -4 0
-10 -10 -14 -23 -3 -13 -36 -76 -73 -141 -70 -120 -82 -143 -127 -234 -26 -52
-126 -198 -163 -237 -10 -11 -34 -42 -53 -70 -19 -27 -41 -56 -48 -63 -7 -8
-37 -55 -67 -105 -31 -51 -73 -121 -95 -156 -22 -34 -40 -66 -40 -69 0 -3 -11
-20 -25 -38 -14 -18 -25 -35 -25 -37 0 -2 -21 -39 -47 -81 -27 -43 -56 -94
-67 -114 -10 -20 -21 -39 -25 -42 -15 -12 -51 -100 -51 -126 0 -16 -7 -42 -16
-59 -8 -16 -18 -64 -21 -106 l-6 -77 33 -17 c41 -21 68 -11 130 48 55 52 90
98 125 163 15 27 37 65 50 84 12 19 41 67 64 105 23 39 45 77 51 85 5 8 15 29
23 45 7 17 24 48 36 70 13 22 73 128 134 235 109 193 140 243 214 351 21 30
44 66 52 80 83 142 166 311 176 359 4 19 11 37 14 40 7 5 35 96 53 170 5 25
14 49 19 55 14 15 10 54 -8 88 -28 49 -52 59 -83 34z"/>
<path d="M2050 3139 c-13 -6 -88 -15 -165 -20 -77 -6 -149 -15 -160 -19 -11
-5 -28 -11 -38 -14 -28 -9 -20 -70 11 -74 12 -2 22 -7 22 -11 0 -4 34 -13 75
-20 41 -8 75 -17 75 -21 0 -4 25 -11 57 -15 31 -4 63 -11 72 -16 45 -25 235
-43 476 -45 410 -5 1037 -25 1085 -35 24 -6 333 -14 685 -18 602 -7 834 -2
860 19 6 5 43 12 83 16 41 4 80 13 88 21 18 19 18 87 -1 103 -51 42 -91 52
-310 80 -44 6 -287 15 -540 21 -548 12 -608 14 -1150 36 -502 20 -1189 27
-1225 12z"/>
<path d="M4929 2586 c-2 -2 -499 -6 -1103 -9 -661 -4 -1101 -10 -1105 -15 -3
-5 -26 -14 -51 -20 -167 -40 -194 -49 -204 -64 -8 -13 -5 -23 14 -43 13 -14
33 -25 44 -25 12 -1 39 -8 61 -16 45 -17 219 -41 400 -55 66 -6 494 -12 950
-15 861 -5 1492 5 1503 23 4 6 26 14 49 17 52 9 150 49 171 70 13 13 14 19 3
38 -13 25 -87 64 -140 74 -17 4 -31 10 -31 14 0 18 -130 30 -335 30 -122 0
-224 -2 -226 -4z"/>
</g>
</svg>
